<svg width="410" height="600" viewBox="0 0 410 600" fill="none" xmlns="http://www.w3.org/2000/svg">
<g clip-path="url(#clip0_12_296)">
<rect width="410" height="600" fill="#4166D7"/>
<rect x="597.787" y="235.787" width="197.584" height="666.802" transform="rotate(45 597.787 235.787)" fill="#4B6ED9"/>
<rect x="337.5" y="-70" width="197.584" height="666.802" transform="rotate(45 337.5 -70)" fill="#4B6ED9"/>
<path d="M75 101V91H85V101H75Z" fill="#5D7DDD"/>
<path d="M317.797 408.95L309.842 400.995L317.797 393.04L325.752 400.995L317.797 408.95Z" fill="#5D7DDD"/>
<path d="M337.173 106.673L328.513 101.673L333.513 93.0131L342.173 98.0131L337.173 106.673Z" fill="#5D7DDD"/>
<path d="M89.4801 516.775L98.3189 507.936L107.158 516.775L98.3189 525.614L89.4801 516.775Z" fill="#5D7DDD"/>
<path d="M158 301V291H168V301H158Z" fill="#5D7DDD"/>
<path d="M356 262V252H366V262H356Z" fill="#5D7DDD"/>
<path d="M66.5525 271.322L54.6446 264.447L61.5196 252.539L73.4275 259.414L66.5525 271.322Z" fill="#5D7DDD"/>
<path d="M272 199V194H282V189H287V184H272V189H262V179H267V174H292V179H297V189H292V194H287V199H272ZM272 209V204H287V209H272Z" fill="#5D7DDD"/>
<path d="M140.25 40.625V37.5H146.5V34.375H149.625V31.25H140.25V34.375H134V28.125H137.125V25H152.75V28.125H155.875V34.375H152.75V37.5H149.625V40.625H140.25ZM140.25 46.875V43.75H149.625V46.875H140.25Z" fill="#5D7DDD"/>
<path d="M167.75 549.875V545.5H176.5V541.125H180.875V536.75H167.75V541.125H159V532.375H163.375V528H185.25V532.375H189.625V541.125H185.25V545.5H180.875V549.875H167.75ZM167.75 558.625V554.25H180.875V558.625H167.75Z" fill="#5D7DDD"/>
<path d="M354 512.5V510H359V507.5H361.5V505H354V507.5H349V502.5H351.5V500H364V502.5H366.5V507.5H364V510H361.5V512.5H354ZM354 517.5V515H361.5V517.5H354Z" fill="#5D7DDD"/>
<path d="M56 180.5V178H61V175.5H63.5V173H56V175.5H51V170.5H53.5V168H66V170.5H68.5V175.5H66V178H63.5V180.5H56ZM56 185.5V183H63.5V185.5H56Z" fill="#5D7DDD"/>
<path d="M72.5 400.25V394H85V387.75H91.25V381.5H72.5V387.75H60V375.25H66.25V369H97.5V375.25H103.75V387.75H97.5V394H91.25V400.25H72.5ZM72.5 412.75V406.5H91.25V412.75H72.5Z" fill="#5D7DDD"/>
<path d="M328.5 44.75V41H336V37.25H339.75V33.5H328.5V37.25H321V29.75H324.75V26H343.5V29.75H347.25V37.25H343.5V41H339.75V44.75H328.5ZM328.5 52.25V48.5H339.75V52.25H328.5Z" fill="#5D7DDD"/>
<path d="M221.023 390.037C220.579 389.283 220.617 388.442 221.136 387.515C221.667 386.602 222.491 385.66 223.608 384.689C223.744 384.571 224.077 384.268 224.608 383.781C225.151 383.309 225.816 382.717 226.603 382.007C227.418 381.298 228.287 380.529 229.21 379.701C230.146 378.887 231.075 378.066 231.998 377.238C232.92 376.409 233.768 375.646 234.539 374.949C235.326 374.238 235.97 373.652 236.47 373.191C236.97 372.73 237.266 372.446 237.359 372.339C237.601 372.526 237.91 372.866 238.287 373.361C238.691 373.857 239.049 374.42 239.359 375.052C239.698 375.685 239.887 376.329 239.926 376.984C239.98 377.626 239.777 378.2 239.316 378.706C239.101 378.946 238.706 379.33 238.13 379.857C237.57 380.37 236.889 380.975 236.089 381.67C235.318 382.368 234.487 383.104 233.596 383.878C232.705 384.652 231.822 385.42 230.947 386.181C230.087 386.928 229.287 387.624 228.547 388.267C227.822 388.897 227.211 389.428 226.713 389.861C226.243 390.296 225.962 390.567 225.869 390.674C225.579 390.98 225.397 391.243 225.325 391.465C225.268 391.674 225.18 391.923 225.06 392.212C224.324 392.189 223.586 392.01 222.844 391.674C222.101 391.339 221.495 390.793 221.023 390.037Z" fill="#5D7DDD"/>
<path d="M252.76 370.8C253 373.04 252.827 374.96 252.24 376.56C251.653 378.16 250.787 379.48 249.64 380.52C248.52 381.56 247.253 382.333 245.84 382.84C244.453 383.32 243.067 383.56 241.68 383.56C240.32 383.56 238.933 383.32 237.52 382.84C236.133 382.333 234.88 381.56 233.76 380.52C232.667 379.48 231.813 378.16 231.2 376.56C230.613 374.96 230.44 373.04 230.68 370.8C230.92 368.747 231.533 366.947 232.52 365.4C233.533 363.853 234.813 362.64 236.36 361.76C237.933 360.853 239.653 360.347 241.52 360.24C241.627 360.213 241.733 360.133 241.84 360C241.973 359.84 242.187 359.707 242.48 359.6C242.8 359.467 243.28 359.427 243.92 359.48C245.44 359.907 246.827 360.64 248.08 361.68C249.333 362.72 250.373 364.013 251.2 365.56C252.053 367.107 252.573 368.853 252.76 370.8ZM241.32 377.16C242.173 377.16 242.907 376.96 243.52 376.56C244.133 376.16 244.627 375.653 245 375.04C245.373 374.4 245.64 373.733 245.8 373.04C245.987 372.347 246.08 371.72 246.08 371.16C246.08 370.013 245.893 369.12 245.52 368.48C245.147 367.84 244.293 367.267 242.96 366.76C242.587 366.6 242.333 366.387 242.2 366.12C242.067 365.853 241.867 365.707 241.6 365.68C240.72 365.573 239.973 365.813 239.36 366.4C238.747 366.987 238.28 367.773 237.96 368.76C237.64 369.747 237.48 370.813 237.48 371.96C237.48 373.107 237.693 374.067 238.12 374.84C238.573 375.613 239.093 376.2 239.68 376.6C240.293 376.973 240.84 377.16 241.32 377.16Z" fill="#5D7DDD"/>
<path d="M226.76 69.2C227 66.96 226.827 65.04 226.24 63.44C225.653 61.84 224.787 60.52 223.64 59.48C222.52 58.44 221.253 57.6667 219.84 57.16C218.453 56.68 217.067 56.44 215.68 56.44C214.32 56.44 212.933 56.68 211.52 57.16C210.133 57.6667 208.88 58.44 207.76 59.48C206.667 60.52 205.813 61.84 205.2 63.44C204.613 65.04 204.44 66.96 204.68 69.2C204.92 71.2533 205.533 73.0533 206.52 74.6C207.533 76.1467 208.813 77.36 210.36 78.24C211.933 79.1467 213.653 79.6533 215.52 79.76C215.627 79.7867 215.733 79.8667 215.84 80C215.973 80.16 216.187 80.2933 216.48 80.4C216.8 80.5333 217.28 80.5733 217.92 80.52C219.44 80.0933 220.827 79.36 222.08 78.32C223.333 77.28 224.373 75.9867 225.2 74.44C226.053 72.8933 226.573 71.1467 226.76 69.2ZM215.32 62.84C216.173 62.84 216.907 63.04 217.52 63.44C218.133 63.84 218.627 64.3467 219 64.96C219.373 65.6 219.64 66.2667 219.8 66.96C219.987 67.6533 220.08 68.28 220.08 68.84C220.08 69.9867 219.893 70.88 219.52 71.52C219.147 72.16 218.293 72.7333 216.96 73.24C216.587 73.4 216.333 73.6133 216.2 73.88C216.067 74.1467 215.867 74.2933 215.6 74.32C214.72 74.4267 213.973 74.1867 213.36 73.6C212.747 73.0133 212.28 72.2267 211.96 71.24C211.64 70.2533 211.48 69.1867 211.48 68.04C211.48 66.8933 211.693 65.9333 212.12 65.16C212.573 64.3867 213.093 63.8 213.68 63.4C214.293 63.0267 214.84 62.84 215.32 62.84Z" fill="#5D7DDD"/>
<path d="M191.76 236.8C192 239.04 191.827 240.96 191.24 242.56C190.653 244.16 189.787 245.48 188.64 246.52C187.52 247.56 186.253 248.333 184.84 248.84C183.453 249.32 182.067 249.56 180.68 249.56C179.32 249.56 177.933 249.32 176.52 248.84C175.133 248.333 173.88 247.56 172.76 246.52C171.667 245.48 170.813 244.16 170.2 242.56C169.613 240.96 169.44 239.04 169.68 236.8C169.92 234.747 170.533 232.947 171.52 231.4C172.533 229.853 173.813 228.64 175.36 227.76C176.933 226.853 178.653 226.347 180.52 226.24C180.627 226.213 180.733 226.133 180.84 226C180.973 225.84 181.187 225.707 181.48 225.6C181.8 225.467 182.28 225.427 182.92 225.48C184.44 225.907 185.827 226.64 187.08 227.68C188.333 228.72 189.373 230.013 190.2 231.56C191.053 233.107 191.573 234.853 191.76 236.8ZM180.32 243.16C181.173 243.16 181.907 242.96 182.52 242.56C183.133 242.16 183.627 241.653 184 241.04C184.373 240.4 184.64 239.733 184.8 239.04C184.987 238.347 185.08 237.72 185.08 237.16C185.08 236.013 184.893 235.12 184.52 234.48C184.147 233.84 183.293 233.267 181.96 232.76C181.587 232.6 181.333 232.387 181.2 232.12C181.067 231.853 180.867 231.707 180.6 231.68C179.72 231.573 178.973 231.813 178.36 232.4C177.747 232.987 177.28 233.773 176.96 234.76C176.64 235.747 176.48 236.813 176.48 237.96C176.48 239.107 176.693 240.067 177.12 240.84C177.573 241.613 178.093 242.2 178.68 242.6C179.293 242.973 179.84 243.16 180.32 243.16Z" fill="#5D7DDD"/>
<path d="M391.76 176.8C392 179.04 391.827 180.96 391.24 182.56C390.653 184.16 389.787 185.48 388.64 186.52C387.52 187.56 386.253 188.333 384.84 188.84C383.453 189.32 382.067 189.56 380.68 189.56C379.32 189.56 377.933 189.32 376.52 188.84C375.133 188.333 373.88 187.56 372.76 186.52C371.667 185.48 370.813 184.16 370.2 182.56C369.613 180.96 369.44 179.04 369.68 176.8C369.92 174.747 370.533 172.947 371.52 171.4C372.533 169.853 373.813 168.64 375.36 167.76C376.933 166.853 378.653 166.347 380.52 166.24C380.627 166.213 380.733 166.133 380.84 166C380.973 165.84 381.187 165.707 381.48 165.6C381.8 165.467 382.28 165.427 382.92 165.48C384.44 165.907 385.827 166.64 387.08 167.68C388.333 168.72 389.373 170.013 390.2 171.56C391.053 173.107 391.573 174.853 391.76 176.8ZM380.32 183.16C381.173 183.16 381.907 182.96 382.52 182.56C383.133 182.16 383.627 181.653 384 181.04C384.373 180.4 384.64 179.733 384.8 179.04C384.987 178.347 385.08 177.72 385.08 177.16C385.08 176.013 384.893 175.12 384.52 174.48C384.147 173.84 383.293 173.267 381.96 172.76C381.587 172.6 381.333 172.387 381.2 172.12C381.067 171.853 380.867 171.707 380.6 171.68C379.72 171.573 378.973 171.813 378.36 172.4C377.747 172.987 377.28 173.773 376.96 174.76C376.64 175.747 376.48 176.813 376.48 177.96C376.48 179.107 376.693 180.067 377.12 180.84C377.573 181.613 378.093 182.2 378.68 182.6C379.293 182.973 379.84 183.16 380.32 183.16Z" fill="#5D7DDD"/>
<path d="M40.79 481.325C41 483.285 40.8483 484.965 40.335 486.365C39.8217 487.765 39.0633 488.92 38.06 489.83C37.08 490.74 35.9717 491.417 34.735 491.86C33.5217 492.28 32.3083 492.49 31.095 492.49C29.905 492.49 28.6917 492.28 27.455 491.86C26.2417 491.417 25.145 490.74 24.165 489.83C23.2083 488.92 22.4617 487.765 21.925 486.365C21.4117 484.965 21.26 483.285 21.47 481.325C21.68 479.528 22.2167 477.953 23.08 476.6C23.9667 475.247 25.0867 474.185 26.44 473.415C27.8167 472.622 29.3217 472.178 30.955 472.085C31.0483 472.062 31.1417 471.992 31.235 471.875C31.3517 471.735 31.5383 471.618 31.795 471.525C32.075 471.408 32.495 471.373 33.055 471.42C34.385 471.793 35.5983 472.435 36.695 473.345C37.7917 474.255 38.7017 475.387 39.425 476.74C40.1717 478.093 40.6267 479.622 40.79 481.325ZM30.78 486.89C31.5267 486.89 32.1683 486.715 32.705 486.365C33.2417 486.015 33.6733 485.572 34 485.035C34.3267 484.475 34.56 483.892 34.7 483.285C34.8633 482.678 34.945 482.13 34.945 481.64C34.945 480.637 34.7817 479.855 34.455 479.295C34.1283 478.735 33.3817 478.233 32.215 477.79C31.8883 477.65 31.6667 477.463 31.55 477.23C31.4333 476.997 31.2583 476.868 31.025 476.845C30.255 476.752 29.6017 476.962 29.065 477.475C28.5283 477.988 28.12 478.677 27.84 479.54C27.56 480.403 27.42 481.337 27.42 482.34C27.42 483.343 27.6067 484.183 27.98 484.86C28.3767 485.537 28.8317 486.05 29.345 486.4C29.8817 486.727 30.36 486.89 30.78 486.89Z" fill="#5D7DDD"/>
<path d="M302.67 508.225C303 511.305 302.762 513.945 301.955 516.145C301.148 518.345 299.957 520.16 298.38 521.59C296.84 523.02 295.098 524.083 293.155 524.78C291.248 525.44 289.342 525.77 287.435 525.77C285.565 525.77 283.658 525.44 281.715 524.78C279.808 524.083 278.085 523.02 276.545 521.59C275.042 520.16 273.868 518.345 273.025 516.145C272.218 513.945 271.98 511.305 272.31 508.225C272.64 505.402 273.483 502.927 274.84 500.8C276.233 498.673 277.993 497.005 280.12 495.795C282.283 494.548 284.648 493.852 287.215 493.705C287.362 493.668 287.508 493.558 287.655 493.375C287.838 493.155 288.132 492.972 288.535 492.825C288.975 492.642 289.635 492.587 290.515 492.66C292.605 493.247 294.512 494.255 296.235 495.685C297.958 497.115 299.388 498.893 300.525 501.02C301.698 503.147 302.413 505.548 302.67 508.225ZM286.94 516.97C288.113 516.97 289.122 516.695 289.965 516.145C290.808 515.595 291.487 514.898 292 514.055C292.513 513.175 292.88 512.258 293.1 511.305C293.357 510.352 293.485 509.49 293.485 508.72C293.485 507.143 293.228 505.915 292.715 505.035C292.202 504.155 291.028 503.367 289.195 502.67C288.682 502.45 288.333 502.157 288.15 501.79C287.967 501.423 287.692 501.222 287.325 501.185C286.115 501.038 285.088 501.368 284.245 502.175C283.402 502.982 282.76 504.063 282.32 505.42C281.88 506.777 281.66 508.243 281.66 509.82C281.66 511.397 281.953 512.717 282.54 513.78C283.163 514.843 283.878 515.65 284.685 516.2C285.528 516.713 286.28 516.97 286.94 516.97Z" fill="#5D7DDD"/>
<path d="M194.023 87.0373C193.579 86.2833 193.617 85.4424 194.136 84.5146C194.667 83.602 195.491 82.6602 196.608 81.6892C196.744 81.5711 197.077 81.2683 197.608 80.7809C198.151 80.3085 198.816 79.7171 199.603 79.0065C200.418 78.298 201.287 77.5294 202.21 76.7008C203.146 75.8873 204.075 75.0662 204.998 74.2376C205.92 73.409 206.768 72.646 207.539 71.9486C208.326 71.2381 208.97 70.6522 209.47 70.191C209.97 69.7298 210.266 69.4457 210.359 69.3388C210.601 69.5258 210.91 69.8665 211.287 70.3606C211.691 70.8568 212.049 71.4205 212.359 72.0518C212.698 72.685 212.887 73.3291 212.926 73.984C212.98 74.6257 212.777 75.1998 212.316 75.7063C212.101 75.9465 211.706 76.3299 211.13 76.8568C210.57 77.3705 209.889 77.975 209.089 78.6704C208.318 79.3678 207.487 80.1036 206.596 80.8778C205.705 81.6519 204.822 82.4195 203.947 83.1805C203.087 83.9284 202.287 84.6239 201.547 85.2668C200.822 85.8966 200.211 86.428 199.713 86.861C199.243 87.296 198.962 87.5669 198.869 87.6739C198.579 87.9796 198.397 88.2434 198.325 88.4652C198.268 88.6738 198.18 88.9228 198.06 89.2122C197.324 89.1891 196.586 89.0098 195.844 88.6744C195.101 88.339 194.495 87.7933 194.023 87.0373Z" fill="#5D7DDD"/>
<path d="M183.023 235.037C182.579 234.283 182.617 233.442 183.136 232.515C183.667 231.602 184.491 230.66 185.608 229.689C185.744 229.571 186.077 229.268 186.608 228.781C187.151 228.309 187.816 227.717 188.603 227.007C189.418 226.298 190.287 225.529 191.21 224.701C192.146 223.887 193.075 223.066 193.998 222.238C194.92 221.409 195.768 220.646 196.539 219.949C197.326 219.238 197.97 218.652 198.47 218.191C198.97 217.73 199.266 217.446 199.359 217.339C199.601 217.526 199.91 217.866 200.287 218.361C200.691 218.857 201.049 219.42 201.359 220.052C201.698 220.685 201.887 221.329 201.926 221.984C201.98 222.626 201.777 223.2 201.316 223.706C201.101 223.946 200.706 224.33 200.13 224.857C199.57 225.37 198.889 225.975 198.089 226.67C197.318 227.368 196.487 228.104 195.596 228.878C194.705 229.652 193.822 230.42 192.947 231.181C192.087 231.928 191.287 232.624 190.547 233.267C189.822 233.897 189.211 234.428 188.713 234.861C188.243 235.296 187.962 235.567 187.869 235.674C187.579 235.98 187.397 236.243 187.325 236.465C187.268 236.674 187.18 236.923 187.06 237.212C186.324 237.189 185.586 237.01 184.844 236.674C184.101 236.339 183.495 235.793 183.023 235.037Z" fill="#5D7DDD"/>
<path d="M355.023 198.037C354.579 197.283 354.617 196.442 355.135 195.515C355.667 194.602 356.491 193.66 357.608 192.689C357.744 192.571 358.077 192.268 358.608 191.781C359.151 191.309 359.816 190.717 360.603 190.007C361.418 189.298 362.287 188.529 363.21 187.701C364.146 186.887 365.075 186.066 365.998 185.238C366.92 184.409 367.767 183.646 368.539 182.949C369.326 182.238 369.97 181.652 370.47 181.191C370.97 180.73 371.266 180.446 371.359 180.339C371.601 180.526 371.91 180.866 372.287 181.361C372.691 181.857 373.049 182.42 373.359 183.052C373.698 183.685 373.887 184.329 373.926 184.984C373.98 185.626 373.777 186.2 373.316 186.706C373.101 186.946 372.706 187.33 372.13 187.857C371.57 188.37 370.889 188.975 370.089 189.67C369.318 190.368 368.486 191.104 367.596 191.878C366.705 192.652 365.822 193.42 364.947 194.181C364.086 194.928 363.286 195.624 362.547 196.267C361.822 196.897 361.211 197.428 360.713 197.861C360.243 198.296 359.962 198.567 359.869 198.674C359.579 198.98 359.397 199.243 359.325 199.465C359.268 199.674 359.179 199.923 359.06 200.212C358.324 200.189 357.586 200.01 356.843 199.674C356.101 199.339 355.495 198.793 355.023 198.037Z" fill="#5D7DDD"/>
<path d="M312.382 535.088C311.54 535.665 310.559 535.69 309.437 535.162C308.331 534.618 307.168 533.735 305.947 532.514C305.799 532.365 305.419 532.002 304.809 531.425C304.215 530.831 303.472 530.105 302.581 529.247C301.69 528.356 300.725 527.407 299.686 526.401C298.663 525.378 297.632 524.363 296.592 523.357C295.553 522.35 294.596 521.426 293.721 520.585C292.83 519.727 292.096 519.026 291.519 518.481C290.941 517.937 290.587 517.615 290.455 517.516C290.653 517.219 291.024 516.831 291.568 516.353C292.113 515.842 292.74 515.38 293.449 514.967C294.159 514.522 294.893 514.249 295.652 514.15C296.394 514.035 297.079 514.225 297.706 514.72C298.003 514.951 298.481 515.38 299.141 516.007C299.785 516.617 300.544 517.359 301.418 518.234C302.293 519.075 303.217 519.983 304.19 520.956C305.164 521.93 306.129 522.895 307.086 523.852C308.026 524.792 308.901 525.667 309.709 526.475C310.501 527.267 311.169 527.935 311.714 528.48C312.258 528.991 312.596 529.297 312.728 529.396C313.108 529.709 313.43 529.899 313.694 529.965C313.941 530.014 314.238 530.097 314.585 530.212C314.618 531.07 314.469 531.945 314.139 532.836C313.809 533.727 313.223 534.477 312.382 535.088Z" fill="#5D7DDD"/>
<path d="M49.9279 500.444C49.3269 500.856 48.6257 500.874 47.8243 500.497C47.0347 500.108 46.2038 499.478 45.3317 498.605C45.2257 498.499 44.9546 498.24 44.5186 497.828C44.0943 497.403 43.564 496.885 42.9276 496.272C42.2912 495.636 41.6018 494.958 40.8593 494.239C40.1286 493.508 39.392 492.784 38.6496 492.065C37.9071 491.346 37.2236 490.686 36.599 490.085C35.9626 489.472 35.4381 488.971 35.0257 488.582C34.6132 488.193 34.3598 487.964 34.2655 487.893C34.4069 487.681 34.6721 487.404 35.061 487.062C35.4499 486.697 35.8978 486.367 36.4045 486.072C36.9113 485.754 37.4357 485.559 37.9778 485.489C38.5082 485.406 38.9972 485.542 39.4451 485.895C39.6572 486.06 39.999 486.367 40.4704 486.814C40.93 487.251 41.4721 487.781 42.0967 488.405C42.7213 489.007 43.3813 489.655 44.0766 490.35C44.7719 491.045 45.4614 491.735 46.1449 492.418C46.8167 493.09 47.4413 493.715 48.0187 494.292C48.5844 494.858 49.0617 495.335 49.4506 495.724C49.8395 496.089 50.0811 496.307 50.1754 496.378C50.4465 496.602 50.6763 496.738 50.8649 496.785C51.0416 496.82 51.2538 496.879 51.5013 496.961C51.5248 497.574 51.4188 498.199 51.1831 498.835C50.9473 499.472 50.529 500.008 49.9279 500.444Z" fill="#5D7DDD"/>
<path d="M290.887 304.111L286.468 299.692L290.887 295.272L295.307 299.692L290.887 304.111Z" fill="#5D7DDD"/>
<path d="M45.9071 580.098L36.1643 574.473L41.7893 564.73L51.5321 570.355L45.9071 580.098Z" fill="#5D7DDD"/>
<path d="M60.88 25.9C61 27.02 60.9133 27.98 60.62 28.78C60.3267 29.58 59.8933 30.24 59.32 30.76C58.76 31.28 58.1267 31.6667 57.42 31.92C56.7267 32.16 56.0333 32.28 55.34 32.28C54.66 32.28 53.9667 32.16 53.26 31.92C52.5667 31.6667 51.94 31.28 51.38 30.76C50.8333 30.24 50.4067 29.58 50.1 28.78C49.8067 27.98 49.72 27.02 49.84 25.9C49.96 24.8733 50.2667 23.9733 50.76 23.2C51.2667 22.4267 51.9067 21.82 52.68 21.38C53.4667 20.9267 54.3267 20.6733 55.26 20.62C55.3133 20.6067 55.3667 20.5667 55.42 20.5C55.4867 20.42 55.5933 20.3533 55.74 20.3C55.9 20.2333 56.14 20.2133 56.46 20.24C57.22 20.4533 57.9133 20.82 58.54 21.34C59.1667 21.86 59.6867 22.5067 60.1 23.28C60.5267 24.0533 60.7867 24.9267 60.88 25.9ZM55.16 29.08C55.5867 29.08 55.9533 28.98 56.26 28.78C56.5667 28.58 56.8133 28.3267 57 28.02C57.1867 27.7 57.32 27.3667 57.4 27.02C57.4933 26.6733 57.54 26.36 57.54 26.08C57.54 25.5067 57.4467 25.06 57.26 24.74C57.0733 24.42 56.6467 24.1333 55.98 23.88C55.7933 23.8 55.6667 23.6933 55.6 23.56C55.5333 23.4267 55.4333 23.3533 55.3 23.34C54.86 23.2867 54.4867 23.4067 54.18 23.7C53.8733 23.9933 53.64 24.3867 53.48 24.88C53.32 25.3733 53.24 25.9067 53.24 26.48C53.24 27.0533 53.3467 27.5333 53.56 27.92C53.7867 28.3067 54.0467 28.6 54.34 28.8C54.6467 28.9867 54.92 29.08 55.16 29.08Z" fill="#5D7DDD"/>
<path d="M69.2009 39.6222C68.7201 39.9522 68.1591 39.9663 67.518 39.6646C66.8863 39.3535 66.2217 38.8491 65.524 38.1514C65.4391 38.0665 65.2223 37.8591 64.8734 37.5291C64.534 37.1897 64.1098 36.7749 63.6006 36.2846C63.0915 35.7755 62.54 35.2334 61.946 34.6583C61.3615 34.0737 60.7722 33.4939 60.1782 32.9188C59.5843 32.3437 59.0374 31.8157 58.5378 31.3349C58.0286 30.8446 57.6091 30.4439 57.2791 30.1328C56.9491 29.8217 56.7464 29.6378 56.671 29.5813C56.7841 29.4115 56.9963 29.19 57.3074 28.9166C57.6185 28.6243 57.9768 28.3603 58.3822 28.1246C58.7876 27.8701 59.2072 27.7145 59.6408 27.6579C60.0651 27.5919 60.4564 27.7003 60.8146 27.9832C60.9843 28.1152 61.2578 28.3603 61.6349 28.7186C62.0026 29.0674 62.4363 29.4917 62.936 29.9914C63.4357 30.4722 63.9636 30.9908 64.5199 31.547C65.0761 32.1033 65.6277 32.6548 66.1745 33.2016C66.7119 33.739 67.2116 34.2387 67.6736 34.7007C68.1261 35.1533 68.508 35.5351 68.8191 35.8462C69.1302 36.1385 69.3235 36.3129 69.3989 36.3695C69.6158 36.5486 69.7996 36.657 69.9505 36.6947C70.0919 36.723 70.2616 36.7702 70.4596 36.8362C70.4784 37.3264 70.3936 37.8261 70.205 38.3352C70.0165 38.8444 69.6818 39.2733 69.2009 39.6222Z" fill="#5D7DDD"/>
</g>
<defs>
<clipPath id="clip0_12_296">
<rect width="410" height="600" fill="white"/>
</clipPath>
</defs>
</svg>
